<svg xmlns="http://www.w3.org/2000/svg" viewBox="0 0 585.5 378.16"><title>Asset 1</title><g id="Layer_2" data-name="Layer 2"><g id="Layer_1-2" data-name="Layer 1"><rect x="37.9" y="175.82" width="161.16" height="28.35" transform="translate(-71.51 308.47) rotate(-90)"/><rect x="128.43" y="175.82" width="171.37" height="28.35" transform="translate(24.12 404.1) rotate(-90)"/><rect x="199.94" y="247.33" width="171.21" height="28.35"/><rect x="104.31" y="104.31" width="118.88" height="28.35"/><rect x="52.15" y="299.48" width="319" height="28.35"/><rect y="349.81" width="371.15" height="28.35"/><rect x="52.15" y="52.15" width="319" height="28.35"/><rect width="371.14" height="28.35"/><rect x="-72.19" y="176.5" width="277.04" height="28.35" transform="translate(257 124.35) rotate(90)"/><rect x="-174.91" y="174.91" width="378.16" height="28.35" transform="translate(203.25 174.91) rotate(90)"/><path d="M395.48,271.08c0-13.53,10-23.91,23.91-23.91a22.92,22.92,0,0,1,19.7,10.64L430,263.07c-2-3.55-6-5.65-10.64-5.65-8.14,0-13.4,5.45-13.4,13.66s5.26,13.66,13.4,13.66c4.66,0,8.67-2.1,10.64-5.65l9.06,5.26A22.76,22.76,0,0,1,419.39,295C405.53,295,395.48,284.61,395.48,271.08Z"/><path d="M441.4,271.08c0-13.53,10-23.91,23.9-23.91A23,23,0,0,1,485,257.81l-9.07,5.26c-2-3.55-6-5.65-10.64-5.65-8.14,0-13.4,5.45-13.4,13.66s5.26,13.66,13.4,13.66c4.67,0,8.67-2.1,10.64-5.65l9.07,5.26A22.78,22.78,0,0,1,465.3,295C451.44,295,441.4,284.61,441.4,271.08Z"/><path d="M523.43,263.86a15.8,15.8,0,0,1-16.09,15.76h-6.9v14.45h-10.5v-46h17.4A15.8,15.8,0,0,1,523.43,263.86Zm-10.51,0a5.62,5.62,0,0,0-5.58-5.92h-6.9v11.83h6.9A5.61,5.61,0,0,0,512.92,263.86Z"/><path d="M441.46,377.18H431V350.45L419.06,370h-1.18L406,350.45v26.73H395.48v-46H406l12.48,20.43L431,331.2h10.51Z"/><path d="M494.86,355.5c0,14.06-9.79,22.6-22.66,22.6-14.45,0-24.83-10.64-24.83-23.84a23.85,23.85,0,0,1,24.11-24c8.8,0,16.22,4.34,20.1,10.51l-8.94,5.13c-1.9-3-6-5.39-11.23-5.39-7.75,0-13.53,5.71-13.53,13.79,0,7.82,5.52,13.53,14.45,13.53,6.11,0,10.12-2.69,11.76-7.09H471.81v-9.2h23.05Z"/><path d="M546.75,377.18H536.24V350.45L524.35,370h-1.18l-11.89-19.5v26.73H500.77v-46h10.51l12.48,20.43,12.48-20.43h10.51Z"/><path d="M585.5,341.32H573.68v35.86H563.17V341.32H551.35V331.2H585.5Z"/></g></g></svg>